<?xml version="1.0" encoding="UTF-8"?>
<svg id="Layer_1" xmlns="http://www.w3.org/2000/svg" version="1.1" viewBox="0 0 128 128">
  <!-- Generator: Adobe Illustrator 29.5.1, SVG Export Plug-In . SVG Version: 2.1.0 Build 141)  -->
  <defs>
    <style>
      .st0 {
        fill: #2b2b2b;
      }

      .st1 {
        fill: #fff;
      }

      .st2 {
        fill: #942fe1;
      }
    </style>
  </defs>
  <rect class="st0" x="2" y="2" width="124" height="124" rx="18.14" ry="18.14"/>
  <polygon class="st2" points="77.3 116.31 103.76 51.54 82.31 23.46 48.56 21.5 24.57 40.82 53.83 116.31 77.3 116.31"/>
  <polygon class="st1" points="72.09 90.82 55 89.3 55.66 81.83 70.52 84.71 67.99 53.66 75.49 53.51 76.17 87.02 72.09 90.82"/>
  <polygon class="st1" points="100.17 51.88 90.47 41.7 81.14 49.68 77.24 43.28 88.07 36.68 92.22 36.85 104.57 45.82 100.17 51.88"/>
  <polygon class="st1" points="44.91 51.54 39.69 46.16 50.69 35.5 55.32 35.03 69.87 44.34 65.83 50.66 53.96 40.56 44.91 51.54"/>
  <polygon class="st1" points="100.74 62.64 83.93 59.38 83.93 53.39 100.74 55.14 100.74 62.64"/>
  <polygon class="st1" points="63.04 62.98 48.57 60.96 48.56 54.92 63.25 54.33 63.04 62.98"/>
  <polygon class="st1" points="38.58 93.38 27.07 93.38 23.39 90.31 19.5 69.16 23.7 64.77 37.06 66.63 36.03 74.05 25.43 71.16 30.2 85.88 38.58 85.88 38.58 93.38"/>
  <polygon class="st1" points="50.68 112.47 41.06 95.01 47.94 92.03 55.05 108.45 50.68 112.47"/>
  <polygon class="st1" points="74.73 101.05 60.75 102.69 60.75 95.19 74.73 93.55 74.73 101.05"/>
  <polygon class="st1" points="83.56 109.69 77.3 109.52 91.57 65.68 98.62 68.24 83.56 109.69"/>
  <polygon class="st1" points="18.44 40.9 55.33 4.35 67.85 15.35 82.4 4.86 87.56 12.64 106.43 12.81 107.79 21.78 92.73 25.67 107 34.25 103.33 37.19 71.41 28.21 75.47 38.19 70.22 40.9 52.62 27.02 23.18 44.37 18.44 40.9"/>
</svg>